<svg id="flat" height="512" viewBox="0 0 512 512" width="512" xmlns="http://www.w3.org/2000/svg"><path d="m400 456.261 16-304.261h-256l16 304.261z" fill="#b1712c"/><path d="m448 432a24 24 0 0 0 24-24v-32a24 24 0 0 0 -24-24h-168v56a24 24 0 0 0 24 24z" fill="#c78640"/><path d="m280 384h192v16h-192z" fill="#a36522"/><path d="m192 456h192v32h-192z" fill="#cbcfd2"/><path d="m128 184h32v96h-32z" fill="#de9400"/><path d="m192 224h-32v32l-32 64h64z" fill="#eda600"/><path d="m144 320 16-64-36-12-48 70.521v23.731h68z" fill="#f6bb00"/><path d="m72 224h-32a131.9393 131.9393 0 0 0 0 64h32z" fill="#eda600"/><path d="m64 288 1.90739-13.35171a161.16683 161.16683 0 0 0 -9.90739-82.64829l32-8 16 40v72l-39.49528 1.3691z" fill="#f6bb00"/><path d="m64.50472 297.3691 24.50261-30.62827a68.41865 68.41865 0 0 0 14.99267-42.74083h32a110.48189 110.48189 0 0 1 -25.60735 70.72878l-22.167 26.60044z" fill="#fac623"/><path d="m208 288 5.02043-10.04086a104 104 0 0 0 10.97957-46.51021v-23.44893h-32v29.21539a55.99986 55.99986 0 0 1 -4.00531 20.79787l-11.99469 29.98674z" fill="#f6bb00"/><path d="m264 432h224v.00006a55.99994 55.99994 0 0 1 -55.99994 55.99994h-112.00012a55.99994 55.99994 0 0 1 -55.99994-55.99994z" fill="#f5c99d"/><path d="m319.99994 296h112.00012a55.99994 55.99994 0 0 1 55.99994 55.99994v.00006h-224v-.00006a55.99994 55.99994 0 0 1 55.99994-55.99994z" fill="#f5c99d"/><path d="m272 352v16l56 40 88-40v-16z" fill="#f6bb00"/><path d="m144 120h288v32h-288z" fill="#e5e7e9"/><path d="m263.9999 24h48.0002a95.9999 95.9999 0 0 1 95.9999 95.9999v.0001a0 0 0 0 1 0 0h-240a0 0 0 0 1 0 0v-.0001a95.9999 95.9999 0 0 1 95.9999-95.9999z" fill="#cbcfd2"/><path d="m200 488 24-200h-48l-32 32h-40l-32-32h-48l24 200z" fill="#cc442f"/></svg>